<?xml version="1.0"?>
<svg xmlns="http://www.w3.org/2000/svg" xmlns:xlink="http://www.w3.org/1999/xlink" version="1.1" id="Capa_1" x="0px" y="0px" viewBox="0 0 512.001 512.001" style="enable-background:new 0 0 512.001 512.001;" xml:space="preserve" width="512px" height="512px"><g><g>
	<g>
		<path d="M425.093,0.51H10.02C4.486,0.51,0,4.996,0,10.53v136.294c0,0.009,0,0.019,0,0.028v292.357    c0,5.534,4.486,10.02,10.02,10.02h180.283c0.023,0,0.046,0.003,0.069,0.003c0.025,0,0.05-0.003,0.076-0.003h151.201    c4.111,13.79,11.592,26.354,21.938,36.69c16.478,16.49,38.321,25.572,61.503,25.572c41.504,0,77.445-29.586,85.462-70.359    c0.715-3.661,1.196-7.36,1.428-10.993c0.014-0.212,0.021-0.425,0.021-0.638V92.316v-0.004v-4.895    C512,39.497,473.014,0.51,425.093,0.51z M20.039,20.55h260.509v116.219h-90.176c-1.077,0-2.147,0.173-3.168,0.514L71.618,175.811    l-51.579-34.385V20.55z M204.596,429.19l32.912-92.031h53.06c3.229,0,6.261-1.557,8.143-4.181l39.401-54.959l-0.102,146.392    c0.001,1.596,0.057,3.189,0.144,4.779H204.596z M491.961,429.168c-0.184,2.676-0.545,5.406-1.074,8.108    c-6.172,31.391-33.843,54.175-65.797,54.175c-17.827,0-34.636-6.995-47.334-19.703c-9.516-9.506-15.895-21.423-18.455-34.488    c-0.831-4.185-1.251-8.509-1.251-12.842l0.195-281.79c6.457,7.794,14.07,14.282,22.499,19.312v105.084    c0,5.534,4.486,10.02,10.02,10.02s10.02-4.486,10.02-10.02v-96.354c6.453,1.881,13.168,3.025,20.039,3.375v113.02    c0,5.534,4.486,10.02,10.02,10.02s10.02-4.486,10.02-10.02V172.76c20.319-3.692,38.287-14.496,51.1-29.801V429.168z     M491.961,91.902c-2.343,34.908-31.555,62.221-66.61,62.221c-10.411,0-20.434-2.357-29.46-6.762    c-0.378-0.226-0.767-0.435-1.175-0.61c-8.62-4.424-16.295-10.724-22.455-18.673c-0.053-0.068-0.106-0.135-0.161-0.202    c-0.214-0.263-0.412-0.518-0.602-0.787c-0.05-0.071-0.102-0.141-0.154-0.21c-0.208-0.278-0.419-0.555-0.673-0.918    c-0.246-0.344-0.493-0.695-0.715-1.017c-5.725-8.333-9.427-17.728-10.922-27.591h31.731c5.534,0,10.02-4.486,10.02-10.02    c0-5.534-4.486-10.02-10.02-10.02H348.26c-5.534,0-10.02,4.486-10.02,10.02v5.614l-0.105,150.646l-52.714,73.529H230.45    c-4.233,0-8.01,2.66-9.434,6.646l-37.702,105.424H20.039V165.51l44.54,29.693c1.666,1.11,3.603,1.683,5.558,1.683    c1.065,0,2.134-0.169,3.168-0.514l118.692-39.564h98.57c5.534,0,10.02-4.486,10.02-10.02V20.55h124.506    c36.871,0,66.868,29.997,66.868,66.868V91.902z" data-original="#000000" class="active-path" data-old_color="#000000" fill="#282C34"/>
	</g>
</g><g>
	<g>
		<path d="M100.113,276.708c-22.099,0-40.078,17.979-40.078,40.078s17.979,40.078,40.078,40.078    c22.099,0,40.078-17.979,40.078-40.078S122.212,276.708,100.113,276.708z M100.113,336.825c-11.05,0-20.039-8.99-20.039-20.039    c0-11.05,8.99-20.039,20.039-20.039c11.05,0,20.039,8.99,20.039,20.039C120.152,327.836,111.161,336.825,100.113,336.825z" data-original="#000000" class="active-path" data-old_color="#000000" fill="#282C34"/>
	</g>
</g><g>
	<g>
		<path d="M181.021,306.767h-0.2c-5.534,0-10.02,4.486-10.02,10.02s4.486,10.02,10.02,10.02h0.2c5.533,0,10.02-4.486,10.02-10.02    S186.554,306.767,181.021,306.767z" data-original="#000000" class="active-path" data-old_color="#000000" fill="#282C34"/>
	</g>
</g><g>
	<g>
		<path d="M160.08,246.984h-0.2c-5.534,0-10.02,4.486-10.02,10.02c0,5.534,4.486,10.02,10.02,10.02h0.2    c5.534,0,10.02-4.486,10.02-10.02C170.099,251.47,165.613,246.984,160.08,246.984z" data-original="#000000" class="active-path" data-old_color="#000000" fill="#282C34"/>
	</g>
</g><g>
	<g>
		<path d="M430.942,308.771h-0.2c-5.534,0-10.02,4.486-10.02,10.02s4.486,10.02,10.02,10.02h0.2c5.534,0,10.02-4.486,10.02-10.02    S436.475,308.771,430.942,308.771z" data-original="#000000" class="active-path" data-old_color="#000000" fill="#282C34"/>
	</g>
</g></g> </svg>
