<?xml version="1.0"?>
<svg xmlns="http://www.w3.org/2000/svg" height="512px" viewBox="0 0 60 60" width="512px" class=""><g><g id="Page-1" fill="none" fill-rule="evenodd"><g id="077---D&amp;D-Podcast" fill="rgb(0,0,0)" fill-rule="nonzero"><path id="Shape" d="m30 2c3.7404428-.00726244 7.4438198.74103195 10.888 2.2.1229871.05237796.2553242.07925361.389.079.4757549.00020821.8857888-.33479603.9804452-.8010395s-.1522748-.93462427-.5904452-1.1199605c-3.6906365-1.56330082-7.6589264-2.365326-11.667-2.358-1.3838567.00039489-2.7660715.09528224-4.137.284-.5415643.08146507-.9168521.58339154-.8418178 1.12588419.0750343.54249264.5724731.92370882 1.1158178.85511581 1.2801019-.17646763 2.5707919-.26500836 3.863-.265z" data-original="#000000" class="active-path" data-old_color="#000000" fill="#FF9900"/><path id="Shape" d="m21.724 1.161c-1.1532448.33204235-2.2855995.73275769-3.391 1.2-.3477953.12603152-.5976025.43376947-.6494398.80004585-.0518372.36627638.1027648.73124833.4019287.9488407.299164.21759237.6940118.25225454 1.0265111.09011345 1.0314325-.4359808 2.0879797-.80997978 3.164-1.12.3490564-.09370385.6203901-.36846097.7097103-.71866473s-.017274-.72135215-.2788115-.97078927c-.2615376-.24943712-.6373156-.3383432-.9828988-.232546z" data-original="#000000" class="active-path" data-old_color="#000000" fill="#FF9900"/><path id="Shape" d="m19.348 7.354c.2149307.50856106.8013448.74670789 1.31.532 5.9767055-2.502049 12.7072945-2.502049 18.684 0 .1231567.05183061.2553816.07868348.389.079.4757549.00020821.8857888-.33479603.9804452-.8010395s-.1522748-.93462427-.5904452-1.1199605c-6.4721251-2.72537841-13.7698749-2.72537841-20.242 0-.5081718.2153181-.7458253.80161972-.531 1.31z" data-original="#000000" class="active-path" data-old_color="#000000" fill="#FF9900"/><path id="Shape" d="m.3 34.12c.06878133.4936505.49058137.8612861.989.862.04647756-.0000416.09290515-.0030477.139-.009.54663234-.0764358.92796781-.5813024.852-1.128-.17660197-1.2800881-.26514334-2.5707873-.265-3.863-.0048863-3.738868.74544919-7.4402056 2.206-10.882.13933358-.3290416.09254151-.7074222-.12275009-.9926094s-.56637482-.4338544-.921-.39-.65891633.2735678-.79824991.6026094c-2.10224063 4.9836068-2.8204958 10.4422079-2.079 15.8z" data-original="#000000" class="active-path" data-old_color="#000000" fill="#FF9900"/><path id="Shape" d="m1.863 37.021c-.254892.0734359-.47016372.245135-.59844352.4773139-.1282798.232179-.15905612.5058125-.08555648.7606861.33139158 1.1531267.73212103 2.2851874 1.2 3.39.13749472.3315498.44213268.5639809.79822416.6090249s.70901076-.1042091.92473275-.3910786c.21572198-.2868696.26115414-.6673487.11904309-.9969463-.43709755-1.0311082-.81144732-2.0877029-1.121-3.164-.15250143-.5306892-.70626457-.8373406-1.237-.685z" data-original="#000000" class="active-path" data-old_color="#000000" fill="#FF9900"/><path id="Shape" d="m7.372 19.33c-.50838028-.2148253-1.0946819.0228282-1.31.531-2.72531897 6.472484-2.72531897 13.770516 0 20.243.1564992.3695049.5187198.609673.92.61.1339498-.0002373.26651711-.0270906.39-.079.50755977-.2164803.74384693-.8031706.528-1.311-2.51337288-5.9740788-2.51337288-12.7089212 0-18.683.21584693-.5078294-.02044023-1.0945197-.528-1.311z" data-original="#000000" class="active-path" data-old_color="#000000" fill="#FF9900"/><path id="Shape" d="m57.621 18.315c-.2153911-.5086542-.8023457-.746391-1.311-.5309999-.5086542.215391-.746391.8023457-.531 1.3109999 1.4591528 3.4437723 2.2074577 7.1468611 2.2 10.887.0001433 1.2922127-.088398 2.5829119-.265 3.863-.0759678.5466976.3053677 1.0515642.852 1.128.0460949.0059523.0925224.0089584.139.009.4984186-.0007139.9202187-.3683495.989-.862.7424407-5.3575223.0252233-10.8161136-2.076-15.8z" data-original="#000000" class="active-path" data-old_color="#000000" fill="#FF9900"/><path id="Shape" d="m56.311 42.181c.5086552.2147079 1.0950693-.0234389 1.31-.532.467879-1.1048126.8686084-2.2368733 1.2-3.39.1009065-.3440036.0099467-.7157032-.2384088-.9742378-.2483556-.2585346-.6161038-.3643436-.9638811-.277329-.3477774.0870146-.6223674.3535378-.7197101.6985668-.3092261 1.0762749-.6832418 2.1328692-1.12 3.164-.1034223.2443846-.1054672.5198557-.0056845.7657488s.2932098.4420422.5376845.5452512z" data-original="#000000" class="active-path" data-old_color="#000000" fill="#FF9900"/><path id="Shape" d="m52.628 40.635c.1234829.0519094.2560502.0787627.39.079.4012802-.000327.7635008-.2404951.92-.61 2.725319-6.472484 2.725319-13.770516 0-20.243-.1335248-.3375579-.4394923-.5762472-.7993953-.6236188-.3599029-.0473717-.7172135.1040147-.9335383.3955241-.2163249.2915095-.2576871.6773564-.1080664 1.0080947 2.5133729 5.9740788 2.5133729 12.7089212 0 18.683-.1034815.2442595-.1056695.5196272-.0060825.7655002.0995871.2458731.2927877.4421016.5370825.5454998z" data-original="#000000" class="active-path" data-old_color="#000000" fill="#FF9900"/><path id="Shape" d="m30 8c-10.9597644-.00862657-20.25441403 8.0509289-21.79801955 18.9014493-1.54360551 10.8505204 5.13466105 21.1823984 15.66201955 24.2305507l3.451 7.205c.5091108 1.0206143 1.552924 1.6642577 2.6934659 1.6608639 1.140542-.0033939 2.1805062-.6532378 2.6835341-1.6768639l3.444-7.189c10.5273585-3.0481523 17.2056251-13.3800303 15.6620195-24.2305507-1.5436055-10.8505204-10.8382551-18.91007587-21.7980195-18.9014493zm5.172 41.324c-.2827624.0750795-.5184648.2702192-.645.534l-3.627 7.584c-.1819325.31929-.5199281.5177463-.8873987.521042-.3674707.0032957-.7089713-.1890665-.8966013-.505042l-3.639-7.6c-.1265352-.2637808-.3622376-.4589205-.645-.534-9.6960554-2.5956938-15.96621952-11.9762034-14.6571931-21.9279654 1.3090264-9.951762 9.7917075-17.3917245 19.8291931-17.3917245s18.5201667 7.4399625 19.8291931 17.3917245-4.9611377 19.3322716-14.6571931 21.9279654z" data-original="#000000" class="active-path" data-old_color="#000000" fill="#FF9900"/><path id="Shape" d="m43.569 22.178-13-9c-.3423515-.2368833-.7956485-.2368833-1.138 0l-13 9c-.269822.1866979-.4308892.4938841-.431.822v14c.0001108.3281159.161178.6353021.431.822l13 9c.013.009.029.012.042.021.0561318.0342286.1154001.0630256.177.086.026.01.051.022.078.03.1772156.0546508.3667844.0546508.544 0 .027-.008.052-.02.078-.03.0615999-.0229744.1208682-.0517714.177-.086.013-.009.029-.012.042-.021l13-9c.269822-.1866979.4308892-.4938841.431-.822v-14c-.0001108-.3281159-.161178-.6353021-.431-.822zm-7.359 10.822h-12.42l6.21-10.092zm-14.077-1.124-3.677-8.088 9.559-1.471zm14 3.124-6.133 9.2-6.132-9.2zm1.735-3.124-5.882-9.559 9.559 1.471zm-6.868-11.734v-4.234l7.862 5.444zm-2 0-7.862 1.21 7.862-5.444zm-8.279 13.458-2.721 1.634v-7.618zm.976 1.746 4.565 6.854-7.418-5.14zm16.606 0 2.853 1.712-7.418 5.142zm.976-1.746 2.721-5.984v7.618z" data-original="#000000" class="active-path" data-old_color="#000000" fill="#FF9900"/><path id="Shape" d="m30 31c.5522847 0 1-.4477153 1-1v-2c0-.5522847-.4477153-1-1-1s-1 .4477153-1 1v2c0 .5522847.4477153 1 1 1z" data-original="#000000" class="active-path" data-old_color="#000000" fill="#FF9900"/><path id="Shape" d="m31 40v-2c0-.5522847-.4477153-1-1-1s-1 .4477153-1 1v2c0 .5522847.4477153 1 1 1s1-.4477153 1-1z" data-original="#000000" class="active-path" data-old_color="#000000" fill="#FF9900"/></g></g></g> </svg>
